<?xml version="1.0" encoding="utf-8"?>
<!-- Generator: Adobe Illustrator 26.0.2, SVG Export Plug-In . SVG Version: 6.00 Build 0)  -->
<svg version="1.1" id="Layer_1" xmlns="http://www.w3.org/2000/svg" xmlns:xlink="http://www.w3.org/1999/xlink" x="0px" y="0px"
	 viewBox="0 0 636 636" style="enable-background:new 0 0 636 636;" xml:space="preserve">
<style type="text/css">
	.st0{fill-rule:evenodd;clip-rule:evenodd;}
</style>
<path class="st0" d="M636,318C636,142.5,493.8,0.2,318.4,0c-0.1,0-0.3,0-0.4,0c-0.1,0-0.3,0-0.4,0C142.2,0.2,0,142.5,0,318
	c0,175.6,142.3,318,318,318h0.1C493.7,636,636,493.6,636,318z M318,58.7l-59.2,120h118.4L318,58.7z M347.7,37.6L409.1,162l59.8-82.2
	C433.1,57,392,42.2,347.7,37.6z M167.1,79.7l59.8,82.2l61.4-124.4C244,42.2,202.9,57,167.1,79.7z M138,100.9
	c-33.1,27.5-59.8,62.4-77.6,102.2l137.4-20L138,100.9z M42.1,259.6C38.1,278.4,36,298,36,318c0,24.1,3,47.5,8.7,69.9l96.7-31.4
	L42.1,259.6z M167.2,331.3l36.6-112.6L71.4,237.9L167.2,331.3z M236,235.8l-32.7,100.5l85.5-27.8L236,235.8z M318,287.4l-52.8-72.7
	h105.7L318,287.4z M55.8,422.1l96.7-31.4l-23.4,136.7C97.2,498.6,72,462.7,55.8,422.1z M165.6,527.8L284,465.5l-95.8-69.6
	L165.6,527.8z M177.2,562.4c36.6,21.1,78.3,34.3,122.8,37.1V497.8L177.2,562.4z M300,432.7l-85.5-62.1l85.5-27.8V432.7z M336,599.4
	V497.8l122.8,64.6C422.3,583.5,380.5,596.6,336,599.4z M470.4,527.8L352,465.5l95.8-69.6L470.4,527.8z M506.9,527.4
	c31.9-28.8,57.1-64.7,73.3-105.3l-96.7-31.4L506.9,527.4z M336,432.7l85.5-62.1L336,342.8V432.7z M432.6,336.3l-85.5-27.8l52.8-72.7
	L432.6,336.3z M564.6,237.9l-95.8,93.4l-36.6-112.6L564.6,237.9z M575.6,203.1l-137.4-20l59.7-82.2
	C531.1,128.4,557.8,163.3,575.6,203.1z M591.3,387.9l-96.7-31.4l99.4-96.9c4,18.8,6.1,38.4,6.1,58.4
	C600,342.1,597,365.5,591.3,387.9z"/>
</svg>
